<svg height="120" viewBox="0 0 1000 120" width="1000" xmlns="http://www.w3.org/2000/svg">
  <!-- Main wave layers with better visibility -->
  <g fill="none" stroke="#bbf7d0" stroke-width="3" opacity="0.8">
    <path d="m-500 75s125-30 250-30 250 30 250 30 125 30 250 30 250-30 250-30 125-30 250-30 250 30 250 30 125 30 250 30 250-30 250-30"/>
    <path d="m-500 45s125-30 250-30 250 30 250 30 125 30 250 30 250-30 250-30 125-30 250-30 250 30 250 30 125 30 250 30 250-30 250-30"/>
    <path d="m-500 105s125-30 250-30 250 30 250 30 125 30 250 30 250-30 250-30 125-30 250-30 250 30 250 30 125 30 250 30 250-30 250-30"/>
  </g>
  
  <!-- Secondary waves with different frequency -->
  <g fill="none" stroke="#86efac" stroke-width="2" opacity="0.6">
    <path d="m-500 60s100-20 200-20 200 20 200 20 100 20 200 20 200-20 200-20 100-20 200-20 200 20 200 20 100 20 200 20 200-20 200-20"/>
    <path d="m-500 90s100-20 200-20 200 20 200 20 100 20 200 20 200-20 200-20 100-20 200-20 200 20 200 20 100 20 200 20 200-20 200-20"/>
  </g>
  
  <!-- Accent waves for extra texture -->
  <g fill="none" stroke="#d1fae5" stroke-width="1.5" opacity="0.5">
    <path d="m-500 30s75-15 150-15 150 15 150 15 75 15 150 15 150-15 150-15 75-15 150-15 150 15 150 15 75 15 150 15 150-15 150-15"/>
    <path d="m-500 110s75-15 150-15 150 15 150 15 75 15 150 15 150-15 150-15 75-15 150-15 150 15 150 15 75 15 150 15 150-15 150-15"/>
  </g>
</svg>