<svg height="95.2" viewBox="0 0 1000 120" width="793" xmlns="http://www.w3.org/2000/svg"><g fill="none" stroke="#1c1917" stroke-width="25"><path d="m-500 75s125-30 250-30 250 30 250 30 125 30 250 30 250-30 250-30 125-30 250-30 250 30 250 30 125 30 250 30 250-30 250-30"/><path d="m-500 45s125-30 250-30 250 30 250 30 125 30 250 30 250-30 250-30 125-30 250-30 250 30 250 30 125 30 250 30 250-30 250-30"/><path d="m-500 105s125-30 250-30 250 30 250 30 125 30 250 30 250-30 250-30 125-30 250-30 250 30 250 30 125 30 250 30 250-30 250-30"/><path d="m-500 15s125-30 250-30 250 30 250 30 125 30 250 30 250-30 250-30 125-30 250-30 250 30 250 30 125 30 250 30 250-30 250-30"/><path d="m-500-15s125-30 250-30 250 30 250 30 125 30 250 30 250-30 250-30 125-30 250-30 250 30 250 30 125 30 250 30 250-30 250-30"/><path d="m-500 135s125-30 250-30 250 30 250 30 125 30 250 30 250-30 250-30 125-30 250-30 250 30 250 30 125 30 250 30 250-30 250-30"/></g></svg>